<svg xmlns="http://www.w3.org/2000/svg" height="511pt" version="1.1" viewBox="0 0 511.99959 511" width="511pt">
<g id="surface1">
<path d="M 114.875 441.738281 L 53.101562 441.738281 C 48.226562 441.738281 44.277344 437.789062 44.277344 432.914062 C 44.277344 428.039062 48.226562 424.089844 53.101562 424.089844 L 114.875 424.089844 C 129.496094 424.089844 141.351562 412.234375 141.351562 397.613281 L 141.351562 265.238281 C 141.351562 260.367188 145.300781 256.414062 150.175781 256.414062 C 155.050781 256.414062 159 260.367188 159 265.238281 L 159 397.613281 C 158.972656 421.972656 139.234375 441.710938 114.875 441.738281 Z M 114.875 441.738281 " style=" stroke:none;fill-rule:nonzero;fill:rgb(90.196078%,90.588235%,90.980392%);fill-opacity:1;" />
<path d="M 256.074219 477.039062 C 251.199219 477.039062 247.25 473.085938 247.25 468.214844 L 247.25 265.238281 C 247.25 260.367188 251.199219 256.414062 256.074219 256.414062 C 260.949219 256.414062 264.898438 260.367188 264.898438 265.238281 L 264.898438 468.214844 C 264.898438 473.085938 260.949219 477.039062 256.074219 477.039062 Z M 256.074219 477.039062 " style=" stroke:none;fill-rule:nonzero;fill:rgb(90.196078%,90.588235%,90.980392%);fill-opacity:1;" />
<path d="M 459.050781 441.738281 L 397.273438 441.738281 C 372.917969 441.710938 353.179688 421.972656 353.148438 397.613281 L 353.148438 265.238281 C 353.148438 260.367188 357.101562 256.414062 361.976562 256.414062 C 366.847656 256.414062 370.800781 260.367188 370.800781 265.238281 L 370.800781 397.613281 C 370.800781 412.234375 382.652344 424.089844 397.273438 424.089844 L 459.050781 424.089844 C 463.921875 424.089844 467.875 428.039062 467.875 432.914062 C 467.875 437.789062 463.921875 441.738281 459.050781 441.738281 Z M 459.050781 441.738281 " style=" stroke:none;fill-rule:nonzero;fill:rgb(90.196078%,90.588235%,90.980392%);fill-opacity:1;" />
<path d="M 512 194.640625 C 511.972656 162.3125 490.03125 134.117188 458.695312 126.160156 C 455.242188 89.941406 424.828125 62.285156 388.449219 62.265625 C 374.84375 62.230469 361.527344 66.191406 350.148438 73.648438 C 336.921875 21.695312 284.082031 -9.703125 232.125 3.523438 C 197.671875 12.292969 170.773438 39.195312 162 73.648438 C 150.621094 66.1875 137.304688 62.230469 123.699219 62.265625 C 87.320312 62.28125 56.910156 89.941406 53.453125 126.15625 C 15.632812 135.636719 -7.34375 173.980469 2.132812 211.800781 C 10.019531 243.261719 38.320312 265.300781 70.75 265.238281 L 441.398438 265.238281 C 480.390625 265.238281 512 233.628906 512 194.640625 Z M 512 194.640625 " style=" stroke:none;fill-rule:nonzero;fill:rgb(34.117647%,64.313725%,100%);fill-opacity:1;" />
<path d="M 256.074219 512.339844 C 270.695312 512.339844 282.550781 500.484375 282.550781 485.863281 C 282.550781 471.242188 270.695312 459.390625 256.074219 459.390625 C 241.453125 459.390625 229.601562 471.242188 229.601562 485.863281 C 229.601562 500.484375 241.453125 512.339844 256.074219 512.339844 Z M 256.074219 512.339844 " style=" stroke:none;fill-rule:nonzero;fill:rgb(60.784314%,78.823529%,100%);fill-opacity:1;" />
<path d="M 485.523438 459.390625 C 500.144531 459.390625 512 447.535156 512 432.914062 C 512 418.292969 500.144531 406.441406 485.523438 406.441406 C 470.902344 406.441406 459.050781 418.292969 459.050781 432.914062 C 459.050781 447.535156 470.902344 459.390625 485.523438 459.390625 Z M 485.523438 459.390625 " style=" stroke:none;fill-rule:nonzero;fill:rgb(60.784314%,78.823529%,100%);fill-opacity:1;" />
<path d="M 26.625 406.4375 C 12.003906 406.4375 0.152344 418.292969 0.152344 432.914062 C 0.152344 447.535156 12.003906 459.386719 26.625 459.386719 C 41.246094 459.386719 53.101562 447.535156 53.101562 432.914062 C 53.101562 418.292969 41.246094 406.4375 26.625 406.4375 Z M 26.625 406.4375 " style=" stroke:none;fill-rule:nonzero;fill:rgb(60.784314%,78.823529%,100%);fill-opacity:1;" />
<path d="M 247.25 229.941406 L 264.902344 229.941406 L 264.902344 247.589844 L 247.25 247.589844 Z M 247.25 229.941406 " style=" stroke:none;fill-rule:nonzero;fill:rgb(0%,42.745098%,94.117647%);fill-opacity:1;" />
<path d="M 282.550781 229.941406 L 300.199219 229.941406 L 300.199219 247.589844 L 282.550781 247.589844 Z M 282.550781 229.941406 " style=" stroke:none;fill-rule:nonzero;fill:rgb(0%,42.745098%,94.117647%);fill-opacity:1;" />
<path d="M 317.851562 229.941406 L 335.5 229.941406 L 335.5 247.589844 L 317.851562 247.589844 Z M 317.851562 229.941406 " style=" stroke:none;fill-rule:nonzero;fill:rgb(0%,42.745098%,94.117647%);fill-opacity:1;" />
<path d="M 353.148438 229.941406 L 370.800781 229.941406 L 370.800781 247.589844 L 353.148438 247.589844 Z M 353.148438 229.941406 " style=" stroke:none;fill-rule:nonzero;fill:rgb(0%,42.745098%,94.117647%);fill-opacity:1;" />
<path d="M 388.449219 229.941406 L 406.101562 229.941406 L 406.101562 247.589844 L 388.449219 247.589844 Z M 388.449219 229.941406 " style=" stroke:none;fill-rule:nonzero;fill:rgb(0%,42.745098%,94.117647%);fill-opacity:1;" />
<path d="M 423.75 229.941406 L 441.398438 229.941406 L 441.398438 247.589844 L 423.75 247.589844 Z M 423.75 229.941406 " style=" stroke:none;fill-rule:nonzero;fill:rgb(0%,42.745098%,94.117647%);fill-opacity:1;" />
<path d="M 211.949219 229.941406 L 229.601562 229.941406 L 229.601562 247.589844 L 211.949219 247.589844 Z M 211.949219 229.941406 " style=" stroke:none;fill-rule:nonzero;fill:rgb(0%,42.745098%,94.117647%);fill-opacity:1;" />
<path d="M 176.648438 229.941406 L 194.300781 229.941406 L 194.300781 247.589844 L 176.648438 247.589844 Z M 176.648438 229.941406 " style=" stroke:none;fill-rule:nonzero;fill:rgb(0%,42.745098%,94.117647%);fill-opacity:1;" />
<path d="M 141.351562 229.941406 L 159 229.941406 L 159 247.589844 L 141.351562 247.589844 Z M 141.351562 229.941406 " style=" stroke:none;fill-rule:nonzero;fill:rgb(0%,42.745098%,94.117647%);fill-opacity:1;" />
<path d="M 106.050781 229.941406 L 123.699219 229.941406 L 123.699219 247.589844 L 106.050781 247.589844 Z M 106.050781 229.941406 " style=" stroke:none;fill-rule:nonzero;fill:rgb(0%,42.745098%,94.117647%);fill-opacity:1;" />
<path d="M 70.75 229.941406 L 88.402344 229.941406 L 88.402344 247.589844 L 70.75 247.589844 Z M 70.75 229.941406 " style=" stroke:none;fill-rule:nonzero;fill:rgb(0%,42.745098%,94.117647%);fill-opacity:1;" />
<path d="M 247.25 477.039062 L 264.902344 477.039062 L 264.902344 494.6875 L 247.25 494.6875 Z M 247.25 477.039062 " style=" stroke:none;fill-rule:nonzero;fill:rgb(0%,42.745098%,94.117647%);fill-opacity:1;" />
<path d="M 476.699219 424.089844 L 494.351562 424.089844 L 494.351562 441.738281 L 476.699219 441.738281 Z M 476.699219 424.089844 " style=" stroke:none;fill-rule:nonzero;fill:rgb(0%,42.745098%,94.117647%);fill-opacity:1;" />
<path d="M 273.726562 282.890625 L 291.375 282.890625 L 291.375 300.539062 L 273.726562 300.539062 Z M 273.726562 282.890625 " style=" stroke:none;fill-rule:nonzero;fill:rgb(0%,42.745098%,94.117647%);fill-opacity:1;" />
<path d="M 273.726562 318.1875 L 291.375 318.1875 L 291.375 335.839844 L 273.726562 335.839844 Z M 273.726562 318.1875 " style=" stroke:none;fill-rule:nonzero;fill:rgb(0%,42.745098%,94.117647%);fill-opacity:1;" />
<path d="M 273.726562 353.488281 L 291.375 353.488281 L 291.375 371.140625 L 273.726562 371.140625 Z M 273.726562 353.488281 " style=" stroke:none;fill-rule:nonzero;fill:rgb(0%,42.745098%,94.117647%);fill-opacity:1;" />
<path d="M 273.726562 388.789062 L 291.375 388.789062 L 291.375 406.441406 L 273.726562 406.441406 Z M 273.726562 388.789062 " style=" stroke:none;fill-rule:nonzero;fill:rgb(0%,42.745098%,94.117647%);fill-opacity:1;" />
<path d="M 379.625 282.890625 L 397.273438 282.890625 L 397.273438 300.539062 L 379.625 300.539062 Z M 379.625 282.890625 " style=" stroke:none;fill-rule:nonzero;fill:rgb(0%,42.745098%,94.117647%);fill-opacity:1;" />
<path d="M 379.625 318.1875 L 397.273438 318.1875 L 397.273438 335.839844 L 379.625 335.839844 Z M 379.625 318.1875 " style=" stroke:none;fill-rule:nonzero;fill:rgb(0%,42.745098%,94.117647%);fill-opacity:1;" />
<path d="M 379.625 353.488281 L 397.273438 353.488281 L 397.273438 371.140625 L 379.625 371.140625 Z M 379.625 353.488281 " style=" stroke:none;fill-rule:nonzero;fill:rgb(0%,42.745098%,94.117647%);fill-opacity:1;" />
<path d="M 379.625 388.789062 L 397.273438 388.789062 L 397.273438 406.441406 L 379.625 406.441406 Z M 379.625 388.789062 " style=" stroke:none;fill-rule:nonzero;fill:rgb(0%,42.745098%,94.117647%);fill-opacity:1;" />
<path d="M 17.800781 424.089844 L 35.453125 424.089844 L 35.453125 441.738281 L 17.800781 441.738281 Z M 17.800781 424.089844 " style=" stroke:none;fill-rule:nonzero;fill:rgb(0%,42.745098%,94.117647%);fill-opacity:1;" />
<path d="M 114.875 282.890625 L 132.527344 282.890625 L 132.527344 300.539062 L 114.875 300.539062 Z M 114.875 282.890625 " style=" stroke:none;fill-rule:nonzero;fill:rgb(0%,42.745098%,94.117647%);fill-opacity:1;" />
<path d="M 114.875 318.1875 L 132.527344 318.1875 L 132.527344 335.839844 L 114.875 335.839844 Z M 114.875 318.1875 " style=" stroke:none;fill-rule:nonzero;fill:rgb(0%,42.745098%,94.117647%);fill-opacity:1;" />
<path d="M 114.875 353.488281 L 132.527344 353.488281 L 132.527344 371.140625 L 114.875 371.140625 Z M 114.875 353.488281 " style=" stroke:none;fill-rule:nonzero;fill:rgb(0%,42.745098%,94.117647%);fill-opacity:1;" />
<path d="M 114.875 388.789062 L 132.527344 388.789062 L 132.527344 406.441406 L 114.875 406.441406 Z M 114.875 388.789062 " style=" stroke:none;fill-rule:nonzero;fill:rgb(0%,42.745098%,94.117647%);fill-opacity:1;" />
<path d="M 273.726562 424.089844 L 291.375 424.089844 L 291.375 441.738281 L 273.726562 441.738281 Z M 273.726562 424.089844 " style=" stroke:none;fill-rule:nonzero;fill:rgb(0%,42.745098%,94.117647%);fill-opacity:1;" />
</g>
</svg>