<svg height="511pt" viewBox="1 -8 511.99968 511" width="511pt" xmlns="http://www.w3.org/2000/svg"><path d="m314.890625 230.941406h-117.78125l58.804687-58.804687h.171876zm0 0" fill="#898890"/><path d="m366.953125.5h-221.90625c-18.855469 0-34.140625 15.285156-34.140625 34.140625v34.136719h290.183594v-34.136719c0-18.855469-15.28125-34.140625-34.136719-34.140625zm0 0" fill="#acabb1"/><path d="m110.90625 461.382812c0 18.851563 15.285156 34.136719 34.140625 34.136719h221.90625c18.855469 0 34.140625-15.285156 34.140625-34.136719v-34.140624h-290.1875zm0 0" fill="#acabb1"/><path d="m110.90625 68.777344v358.464844h290.183594v-358.464844zm204.835938 256.046875c0 4.714843-3.820313 8.535156-8.53125 8.535156h-102.421876c-4.710937 0-8.535156-3.820313-8.535156-8.535156v-93.03125l.855469-.851563 58.890625-58.890625 58.890625 58.890625.855469.851563v93.03125zm0 0" fill="#ffeb99"/><path d="m110.90625 427.242188s290.183594-59.746094 290.183594-358.464844v358.464844zm0 0" fill="#ffe477"/><path d="m315.742188 231.792969v93.03125c0 4.714843-3.820313 8.535156-8.53125 8.535156h-102.421876c-4.710937 0-8.535156-3.820313-8.535156-8.535156v-93.03125l.855469-.851563h117.78125zm0 0" fill="#ff9478"/><path d="m247.464844 452.847656h17.070312v17.066406h-17.070312zm0 0" fill="#787680"/><path d="m153.582031 26.105469h17.070313v17.066406h-17.070313zm0 0" fill="#787680"/><path d="m187.722656 26.105469h51.207032v17.066406h-51.207032zm0 0" fill="#787680"/><path d="m314.890625 230.941406h-20.570313l-38.320312-38.324218-38.320312 38.324218h-20.570313l58.804687-58.804687h.171876zm0 0" fill="#787680"/><g fill="#1e81ce"><path d="m430.230469 268.613281c-4.714844 0-8.535157-3.824219-8.53125-8.535156 0-2.265625.898437-4.433594 2.496093-6.035156 3.332032-3.332031 3.332032-8.734375 0-12.066407-3.390624-3.277343-3.484374-8.679687-.207031-12.070312 3.273438-3.390625 8.675781-3.484375 12.066407-.207031.070312.066406.140624.136719.210937.207031 9.996094 10 9.996094 26.207031 0 36.207031-1.601563 1.601563-3.773437 2.5-6.035156 2.5zm0 0"/><path d="m454.375 292.75c-4.714844 0-8.535156-3.824219-8.53125-8.539062 0-2.261719.898438-4.429688 2.496094-6.03125 16.660156-16.664063 16.660156-43.675782 0-60.339844-3.273438-3.390625-3.179688-8.792969.210937-12.070313 3.308594-3.191406 8.550781-3.191406 11.859375 0 23.332032 23.332031 23.332032 61.160157.003906 84.492188 0 0-.003906.003906-.003906.003906-1.605468 1.59375-3.773437 2.488281-6.035156 2.484375zm0 0"/><path d="m478.511719 316.894531c-4.714844 0-8.535157-3.824219-8.53125-8.535156 0-2.261719.898437-4.433594 2.496093-6.03125 29.953126-30.019531 29.953126-78.617187 0-108.632813-3.273437-3.390624-3.179687-8.792968.210938-12.070312 3.308594-3.191406 8.550781-3.191406 11.859375 0 36.605469 36.6875 36.605469 96.082031 0 132.769531-1.597656 1.605469-3.769531 2.507813-6.035156 2.5zm0 0"/><path d="m81.769531 268.613281c-2.261719 0-4.433593-.902343-6.035156-2.5-9.996094-10-9.996094-26.207031 0-36.207031 3.277344-3.390625 8.679687-3.484375 12.070313-.207031 3.390624 3.273437 3.484374 8.675781.207031 12.066406-.066407.070313-.136719.140625-.207031.210937-3.332032 3.332032-3.332032 8.734376 0 12.066407 3.332031 3.335937 3.332031 8.738281-.003907 12.070312-1.597656 1.601563-3.769531 2.5-6.03125 2.5zm0 0"/><path d="m57.625 292.75c-2.261719 0-4.433594-.902344-6.035156-2.5-23.332032-23.332031-23.335938-61.160156-.003906-84.492188 0 0 .003906 0 .003906-.003906 3.273437-3.390625 8.679687-3.484375 12.070312-.210937 3.390625 3.277343 3.484375 8.679687.207032 12.070312-.066407.070313-.136719.140625-.207032.210938-16.660156 16.664062-16.660156 43.675781 0 60.339843 3.332032 3.332032 3.332032 8.738282-.003906 12.070313-1.597656 1.597656-3.769531 2.5-6.03125 2.5zm0 0"/><path d="m33.488281 316.894531c-2.265625.007813-4.4375-.894531-6.035156-2.5-36.605469-36.6875-36.605469-96.082031 0-132.769531 3.390625-3.273438 8.792969-3.179688 12.070313.210938 3.191406 3.308593 3.191406 8.550781 0 11.859374-29.953126 30.015626-29.953126 78.613282 0 108.632813 3.332031 3.332031 3.332031 8.734375-.003907 12.066406-1.601562 1.601563-3.769531 2.5-6.03125 2.5zm0 0"/></g><path d="m197.109375 230.941406h20.570313l-21.425782 21.507813v-20.65625zm0 0" fill="#ff7956"/><path d="m315.742188 231.792969v20.65625l-21.421876-21.507813h20.570313zm0 0" fill="#ff7956"/><path d="m334.460938 262.578125-78.460938-78.460937-78.460938 78.460937-12.066406-12.066406 84.492188-84.496094c3.386718-3.203125 8.683594-3.203125 12.070312 0l84.492188 84.496094zm0 0" fill="#57565c"/></svg>