<svg viewBox="-112 0 512 512" xmlns="http://www.w3.org/2000/svg"><path d="m248 0h-208c-22.054688 0-40 17.945312-40 40v432c0 22.054688 17.945312 40 40 40h208c22.054688 0 40-17.945312 40-40v-432c0-22.054688-17.945312-40-40-40zm0 0" fill="#eaebef"/><path d="m32 472v-432c0-22.054688 17.945312-40 40-40h-32c-22.054688 0-40 17.945312-40 40v432c0 22.054688 17.945312 40 40 40h32c-22.054688 0-40-17.945312-40-40zm0 0" fill="#d5d8de"/><path d="m0 472c0 22.054688 17.945312 40 40 40h208c22.054688 0 40-17.945312 40-40v-24h-288zm0 0" fill="#808a9d"/><path d="m32 472v-24h-32v24c0 22.054688 17.945312 40 40 40h32c-22.054688 0-40-17.945312-40-40zm0 0" fill="#6b768d"/><path d="m248 0h-208c-22.054688 0-40 17.945312-40 40v16h288v-16c0-22.054688-17.945312-40-40-40zm0 0" fill="#808a9d"/><path d="m72 0h-32c-22.054688 0-40 17.945312-40 40v16h32v-16c0-22.054688 17.945312-40 40-40zm0 0" fill="#6b768d"/><g fill="#56637d"><path d="m152 40h-16c-4.417969 0-8-3.582031-8-8s3.582031-8 8-8h16c4.417969 0 8 3.582031 8 8s-3.582031 8-8 8zm0 0"/><path d="m192 40h-8c-4.417969 0-8-3.582031-8-8s3.582031-8 8-8h8c4.417969 0 8 3.582031 8 8s-3.582031 8-8 8zm0 0"/><path d="m104 40h-8c-4.417969 0-8-3.582031-8-8s3.582031-8 8-8h8c4.417969 0 8 3.582031 8 8s-3.582031 8-8 8zm0 0"/><path d="m160 488h-32c-4.417969 0-8-3.582031-8-8s3.582031-8 8-8h32c4.417969 0 8 3.582031 8 8s-3.582031 8-8 8zm0 0"/></g><path d="m240 192h-192c-4.417969 0-8 3.582031-8 8v144c0 4.417969 3.582031 8 8 8h192c4.417969 0 8-3.582031 8-8v-144c0-4.417969-3.582031-8-8-8zm0 0" fill="#f5e063"/><path d="m240 352c4.417969 0 8-3.582031 8-8v-48l-89.597656-67.195312c-4.128906-3.101563-9.242188-4.804688-14.402344-4.804688s-10.273438 1.703125-14.398438 4.800781l-89.601562 67.199219v48c0 4.417969 3.582031 8 8 8zm0 0" fill="#f2d83d"/><path d="m244.800781 313.601562-96-72c-2.84375-2.136718-6.757812-2.136718-9.601562 0l-96 72c-2.015625 1.507813-3.199219 3.878907-3.199219 6.398438v24c0 4.417969 3.582031 8 8 8h192c4.417969 0 8-3.582031 8-8v-24c0-2.519531-1.1875-4.890625-3.199219-6.398438zm0 0" fill="#f5e063"/><path d="m247.589844 197.46875c-1.089844-3.265625-4.144532-5.46875-7.589844-5.46875h-192c-3.441406 0-6.5 2.203125-7.589844 5.46875s.035156 6.867188 2.789063 8.929688l96 72c1.421875 1.070312 3.113281 1.601562 4.800781 1.601562s3.378906-.53125 4.800781-1.601562l96-72c2.753907-2.0625 3.878907-5.660157 2.789063-8.929688zm0 0" fill="#f7e88a"/><path d="m200 144c-30.878906 0-56 25.121094-56 56s25.121094 56 56 56 56-25.121094 56-56-25.121094-56-56-56zm0 0" fill="#fb675f"/><path d="m216 248c-30.878906 0-56-25.121094-56-56 0-18.722656 9.242188-35.3125 23.394531-45.488281-22.796875 7.09375-39.394531 28.386719-39.394531 53.488281 0 30.878906 25.121094 56 56 56 12.15625 0 23.414062-3.90625 32.605469-10.511719-5.25 1.628907-10.828125 2.511719-16.605469 2.511719zm0 0" fill="#fa544b"/><path d="m200 208c-4.417969 0-8-3.582031-8-8v-24c0-4.417969 3.582031-8 8-8s8 3.582031 8 8v24c0 4.417969-3.582031 8-8 8zm0 0" fill="#f4f5f7"/><path d="m207.5 224c0 4.140625-3.359375 7.5-7.5 7.5s-7.5-3.359375-7.5-7.5 3.359375-7.5 7.5-7.5 7.5 3.359375 7.5 7.5zm0 0" fill="#f4f5f7"/></svg>